<?xml version="1.0" encoding="UTF-8"?>
<svg id="_レイヤー_1" data-name="レイヤー 1" xmlns="http://www.w3.org/2000/svg" viewBox="0 0 180 180">
  <defs>
    <style>
      .cls-1 {
        fill: #6e8dc8;
      }

      .cls-2 {
        fill: #b7b748;
      }

      .cls-3 {
        fill: #81998b;
        stroke: #fff;
        stroke-width: 1.23px;
      }

      .cls-3, .cls-4, .cls-5 {
        stroke-miterlimit: 10;
      }

      .cls-4 {
        stroke-width: 1.37px;
      }

      .cls-4, .cls-6, .cls-5, .cls-7, .cls-8 {
        stroke: #040000;
      }

      .cls-4, .cls-7, .cls-8 {
        fill: none;
      }

      .cls-6 {
        fill: #fff;
      }

      .cls-6, .cls-5, .cls-8 {
        stroke-width: .36px;
      }

      .cls-6, .cls-7, .cls-8 {
        stroke-linejoin: round;
      }

      .cls-9 {
        fill: #231815;
      }

      .cls-5 {
        fill: #7b6929;
      }

      .cls-10 {
        fill: #040000;
      }

      .cls-7 {
        stroke-width: .27px;
      }
    </style>
  </defs>
  <g>
    <path class="cls-1" d="M51.13,65.58c.71.79,1.1,1.72,1.1,2.65,0,1.28-.71,2.6-1.99,3.66-1.01.84-2.38,1.41-3.75,1.41-1.24,0-2.43-.44-3.4-1.54l-8.03-8.96c-1.72,2.65-3.31,4.99-4.46,6.49-2.38,3.31-3.71,3.71-8.78,3.71h-6.58c-1.85,0-2.52-1.06-2.52-2.21v-.09c.04-1.06.84-1.94,2.43-1.94h3.22c7.28-10.2,11.52-16.59,15.49-23.26h-15.18c-1.63,0-2.6-.88-2.56-2.21,0-1.32.97-2.12,2.56-2.12h17.83c.97-1.02,2.38-1.46,3.97-1.46.79,0,1.68.13,2.52.35,3.18.79,4.24,2.78,2.78,5.47-.93,1.68-2.96,5.08-5.3,8.83l10.64,11.21Z"/>
    <path class="cls-1" d="M93.15,51.24c1.94,0,2.56.79,2.56,2.12s-.62,2.21-2.56,2.21h-10.99c-.53,4.94-.88,8.87-1.37,12.53-.53,4.24-2.03,5.03-7.41,5.03h-7.19c-1.9,0-2.69-.71-2.69-2.07s.79-2.12,2.69-2.12h3.84c.57-3.93,1.1-8.96,1.5-13.37h-11.61c-2.03,0-2.6-.88-2.6-2.21s.57-2.12,2.6-2.12h33.23ZM63.76,44.66c-2.03,0-2.6-.79-2.6-2.16,0-1.28.57-2.12,2.6-2.12h24.98c1.9,0,2.56.79,2.56,2.12s-.66,2.16-2.56,2.16h-24.98Z"/>
  </g>
  <g>
    <path class="cls-2" d="M120.74,129.35c.69.78,1.08,1.69,1.08,2.59,0,1.25-.69,2.55-1.94,3.59-.99.82-2.33,1.38-3.67,1.38-1.21,0-2.38-.43-3.33-1.51l-7.86-8.78c-1.68,2.59-3.24,4.89-4.36,6.36-2.33,3.24-3.63,3.63-8.6,3.63h-6.44c-1.81,0-2.46-1.04-2.46-2.16v-.09c.04-1.04.82-1.9,2.38-1.9h3.15c7.13-9.99,11.27-16.26,15.16-22.79h-14.86c-1.6,0-2.55-.87-2.51-2.16,0-1.3.95-2.08,2.51-2.08h17.45c.95-.99,2.33-1.43,3.89-1.43.78,0,1.64.13,2.46.35,3.11.78,4.15,2.72,2.72,5.36-.91,1.64-2.89,4.97-5.18,8.65l10.41,10.98Z"/>
    <path class="cls-2" d="M162.55,107c0,.39-.04.82-.13,1.25-.6,3.89-2.76,17.29-4.06,23.61-.82,3.98-2.12,4.89-8.08,4.89h-9.85c-1.73-.04-2.38-1.04-2.38-2.03s.69-2.08,2.55-2.08h7.21c.69-3.2,1.43-6.79,2.07-10.33h-7.21c-1.81,0-2.55-.86-2.55-2.12s.73-2.08,2.55-2.08h7.95c.61-3.37,1.12-6.4,1.47-8.56h-11.28l-1.99,10.46c-.48,2.59-1.68,3.33-5.79,3.33h-5.01c-1.9-.09-2.42-.86-2.42-1.9v-.13c.04-1.04.52-1.82,2.33-1.82h1.34l2.16-12.67c.39-2.33,1.3-3.59,4.58-3.59.3,0,.56.04.86.04,2.16.17,3.67.74,4.23,2.08h11.84c.78-1.56,2.42-2.08,4.75-1.9,3.46.26,4.84,1.3,4.84,3.55Z"/>
  </g>
  <g>
    <g>
      <path class="cls-5" d="M115.13,28.98l-7.58,19.49s6.42-.08,10.33,1.42c3.91,1.5,8.92,6.23,8.92,6.23l7.93-20.49s-5.57-3.94-10.5-5.84-9.1-.82-9.1-.82Z"/>
      <path class="cls-5" d="M153.72,43.81s-2.38-3.59-7.3-5.48c-4.93-1.89-11.68-2.69-11.68-2.69l-7.86,20.52s6.88-.16,10.79,1.34,8.63,5.86,8.63,5.86l7.43-19.55Z"/>
    </g>
    <g>
      <path class="cls-6" d="M119.72,26.18l-7.82,20.63s3.5.11,7.61,2.44c4.11,2.33,7.32,6.88,7.32,6.88l8.96-23.41s-3.71-3.85-7.42-5.28-8.66-1.27-8.66-1.27Z"/>
      <path class="cls-6" d="M144.94,33.81c-3.71-1.43-9.14-1.08-9.14-1.08l-8.93,23.41s5.44-1.23,10.05-.21c4.61,1.02,7.29,3.29,7.29,3.29l8.01-20.56s-3.57-3.43-7.28-4.85Z"/>
    </g>
    <path class="cls-7" d="M149.49,40.67s-2.64-2.53-5.37-3.58-6.75-.79-6.75-.79"/>
    <path class="cls-7" d="M147.62,45.54s-2.64-2.53-5.37-3.58-6.75-.79-6.75-.79"/>
    <path class="cls-7" d="M145.75,50.4s-2.64-2.53-5.37-3.58-6.75-.79-6.75-.79"/>
    <path class="cls-7" d="M143.88,55.27s-2.64-2.53-5.37-3.58-6.75-.79-6.75-.79"/>
    <path class="cls-7" d="M120.8,29.65s3.65-.11,6.39.94,5.54,3.93,5.54,3.93"/>
    <path class="cls-7" d="M118.93,34.51s3.65-.11,6.39.94,5.54,3.93,5.54,3.93"/>
    <path class="cls-7" d="M117.07,39.38s3.65-.11,6.39.94,5.54,3.93,5.54,3.93"/>
    <path class="cls-7" d="M115.2,44.24s3.65-.11,6.39.94,5.54,3.93,5.54,3.93"/>
    <g>
      <polygon class="cls-6" points="163.41 27.66 144.3 36.16 138.03 44.05 148.02 45.12 167.27 36.49 164.49 30.14 163.41 27.66"/>
      <polyline class="cls-8" points="144.3 36.16 146.24 38.11 146.07 40.35 148.04 42.07 148.02 45.12"/>
      <line class="cls-8" x1="146.24" y1="38.11" x2="164.49" y2="30.14"/>
      <line class="cls-8" x1="148.04" y1="42.07" x2="166.26" y2="34.19"/>
      <polygon class="cls-10" points="141.64 39.5 143.87 44.51 138.29 44.01 141.64 39.5"/>
    </g>
  </g>
  <g>
    <circle class="cls-4" cx="39.8" cy="133.53" r="20.29"/>
    <g>
      <polyline class="cls-4" points="29.01 130.33 39.79 133.76 45.09 121.71"/>
      <polygon class="cls-10" points="29.42 131.71 25.54 129.23 30.15 129.44 29.42 131.71"/>
      <polygon class="cls-10" points="45.86 122.93 46.56 118.38 43.67 121.97 45.86 122.93"/>
    </g>
    <g>
      <path class="cls-9" d="M43.57,149.13c.07-.14.2-.25.39-.3.36-.1.72.1.85.58.12.45-.06.94-.56,1.08-.56.16-.97-.2-1.13-.78-.23-.82.09-1.5.79-1.75.08-.04.12-.05.23-.08l.12.42c-.06.02-.12.04-.2.07-.39.16-.51.47-.5.76h.01ZM44.26,149.57c-.05-.19-.19-.37-.39-.31-.11.03-.17.13-.19.25,0,.03,0,.1.03.19.08.25.24.45.43.4.18-.05.19-.3.13-.52Z"/>
      <path class="cls-9" d="M34.21,148.4l1.52-.42.1.34-.29,2.28-.57.16.33-2.16h0s-.95.26-.95.26l-.13-.46Z"/>
      <path class="cls-9" d="M27.51,145.25c-.24-.06-.41-.23-.47-.42-.11-.4.15-.75.58-.87.48-.13.8.09.89.4.05.18,0,.42-.19.62h0c.24.04.49.19.57.49.12.45-.14.81-.63.95-.52.15-.89-.08-.99-.44-.08-.28.03-.54.22-.72h0ZM27.56,144.65c.04.15.19.25.36.26.09-.07.14-.24.11-.37-.04-.14-.14-.28-.31-.23-.19.05-.19.23-.16.34ZM28.37,145.66c-.06-.2-.24-.31-.42-.32-.12.1-.17.27-.12.44.05.18.2.31.37.27.18-.05.22-.23.18-.38Z"/>
      <path class="cls-9" d="M23.97,137.95c-.06.11-.18.22-.36.27-.36.1-.73-.09-.86-.55-.12-.44.08-.94.58-1.08.54-.15.93.22,1.09.78.25.89-.08,1.58-.89,1.8-.05.01-.09.03-.13.03l-.12-.43c.07-.01.11-.03.23-.07.28-.11.5-.34.48-.76h-.01ZM23.28,137.48c.07.24.22.38.38.34.11-.03.17-.13.19-.2,0-.05,0-.12-.04-.23-.07-.25-.21-.44-.39-.39-.16.04-.2.26-.13.49Z"/>
      <g>
        <path class="cls-9" d="M22.77,130.87l-.53-1.89h0s-.35.32-.35.32l-.23-.36.53-.47.47-.13.66,2.38-.54.15Z"/>
        <path class="cls-9" d="M23.61,129.36c-.19-.67-.09-1.3.48-1.46.61-.17.97.4,1.14,1,.22.78.04,1.32-.47,1.46-.61.17-.98-.4-1.15-1ZM24.67,129.06c-.14-.51-.3-.77-.47-.72-.16.05-.2.32-.04.86.15.54.31.76.48.71.13-.04.21-.21.03-.86Z"/>
      </g>
      <g>
        <path class="cls-9" d="M26.93,123.4l-.53-1.89h0s-.35.33-.35.33l-.23-.36.53-.47.47-.13.66,2.38-.54.15Z"/>
        <path class="cls-9" d="M28.75,122.9l-.53-1.89h0s-.35.33-.35.33l-.23-.37.53-.47.47-.13.66,2.38-.54.15Z"/>
      </g>
      <g>
        <path class="cls-9" d="M34.36,119.11l-.53-1.89h0s-.35.33-.35.33l-.23-.36.53-.47.47-.13.66,2.38-.54.15Z"/>
        <path class="cls-9" d="M37.07,118.36l-1.52.42-.1-.34.19-.37c.29-.54.46-.89.38-1.18-.05-.18-.2-.3-.43-.24-.16.04-.29.17-.38.28l-.26-.36c.12-.15.35-.32.62-.39.54-.15.87.11.98.51.12.42-.07.82-.28,1.19l-.15.25h0s.81-.22.81-.22l.13.46Z"/>
      </g>
      <path class="cls-9" d="M43.71,118.82l-.53-1.89h0s-.35.33-.35.33l-.23-.37.53-.47.47-.13.66,2.38-.54.15Z"/>
      <path class="cls-9" d="M52.06,122.71l-1.52.42-.1-.34.19-.37c.29-.54.46-.89.38-1.18-.05-.18-.2-.3-.43-.24-.16.04-.29.17-.38.28l-.26-.36c.12-.15.35-.32.62-.39.54-.15.87.11.98.51.12.42-.07.82-.28,1.19l-.15.25h0s.81-.22.81-.22l.13.46Z"/>
      <path class="cls-9" d="M55.52,128.9c.28,0,.55.14.63.46.11.4-.13.82-.7.97-.26.07-.51.07-.65.03v-.45c.11.03.31.04.48,0,.24-.07.34-.25.29-.43-.07-.24-.31-.28-.54-.22l-.16.04-.11-.39.14-.04c.18-.05.37-.19.31-.39-.04-.14-.17-.22-.37-.16-.15.04-.29.15-.37.23l-.22-.37c.1-.11.34-.26.6-.33.47-.13.8.07.88.39.07.25-.03.48-.25.65h0Z"/>
      <path class="cls-9" d="M56.28,138.61l-.5.14-.16-.56-.93.26-.1-.36.41-1.7.62-.17.39,1.41.25-.07.12.42-.25.07.15.56ZM55.05,137.9l.46-.13-.14-.48c-.04-.14-.07-.3-.1-.44h0c-.03.16-.05.32-.08.48l-.13.56h0Z"/>
      <path class="cls-9" d="M51.43,143.63l.13.46-.79.22.06.39s.07-.03.11-.04c.37-.1.86-.02,1.01.53.13.45-.11.94-.71,1.1-.24.07-.47.07-.61.04l-.02-.44c.11.02.29.03.47-.02.22-.06.39-.25.32-.49-.07-.27-.32-.34-.7-.23-.1.03-.17.05-.24.08l-.2-1.27,1.18-.33Z"/>
    </g>
  </g>
  <path class="cls-3" d="M107.22,100.64c.81.91,1.18,1.78,1.18,2.58,0,1.72-1.83,3.07-4.84,3.6-1.4.27-2.8.54-4.03.54-2.15,0-4.09-.65-5.81-2.69-1.45-1.67-4.84-5.76-8.82-10.6l-10.44,11.57c-1.13,1.24-2.31,1.78-3.71,1.78-.59,0-1.29-.11-2.04-.32-1.67-.43-2.64-1.29-2.64-2.37,0-.75.43-1.56,1.34-2.47,1.67-1.72,6.99-7.53,12.69-13.88-4.73-5.7-9.52-11.51-12.53-15.22-2.53-3.12-.22-5.16,4.2-5.86,1.08-.16,2.15-.32,3.23-.32,2.1,0,4.03.59,5.65,2.53,3.01,3.66,5.59,6.72,7.91,9.47,4.95-5.54,8.93-10,9.41-10.6.81-.91,2.04-1.4,3.66-1.4.43,0,.91.05,1.4.11,1.88.27,3.39,1.02,3.39,2.21,0,.43-.16.97-.65,1.51-1.45,1.67-6.62,7.42-12.37,13.88l13.82,15.98Z"/>
</svg>