<?xml version="1.0" encoding="UTF-8"?>
<svg id="_レイヤー_2" data-name="レイヤー 2" xmlns="http://www.w3.org/2000/svg" viewBox="0 0 220.53 80.28">
  <defs>
    <style>
      .cls-1 {
        fill: #6e8dc8;
      }

      .cls-2 {
        fill: #b7b748;
      }

      .cls-3 {
        fill: #81998b;
        stroke: #fff;
      }

      .cls-3, .cls-4, .cls-5 {
        stroke-miterlimit: 10;
      }

      .cls-6 {
        fill: #fff;
      }

      .cls-6, .cls-4, .cls-5, .cls-7, .cls-8 {
        stroke: #040000;
      }

      .cls-6, .cls-5, .cls-7 {
        stroke-width: .29px;
      }

      .cls-6, .cls-7, .cls-8 {
        stroke-linejoin: round;
      }

      .cls-4 {
        stroke-width: 1.12px;
      }

      .cls-4, .cls-7, .cls-8 {
        fill: none;
      }

      .cls-9 {
        fill: #231815;
      }

      .cls-5 {
        fill: #7b6929;
      }

      .cls-10 {
        fill: #040000;
      }

      .cls-8 {
        stroke-width: .22px;
      }
    </style>
  </defs>
  <g id="_レイヤー_1-2" data-name="レイヤー 1">
    <g>
      <g>
        <path class="cls-1" d="M31.32,22.1c.58.65.9,1.4.9,2.16,0,1.04-.58,2.12-1.62,2.99-.83.68-1.94,1.15-3.06,1.15-1.01,0-1.98-.36-2.77-1.26l-6.55-7.31c-1.4,2.16-2.7,4.07-3.64,5.29-1.94,2.7-3.02,3.02-7.16,3.02H2.05c-1.51,0-2.05-.86-2.05-1.8v-.07c.04-.86.68-1.58,1.98-1.58h2.63c5.94-8.31,9.39-13.53,12.63-18.97H4.86c-1.33,0-2.12-.72-2.09-1.8,0-1.08.79-1.73,2.09-1.73h14.54c.79-.83,1.94-1.19,3.24-1.19.65,0,1.37.11,2.05.29,2.59.65,3.46,2.27,2.27,4.46-.76,1.37-2.41,4.14-4.32,7.2l8.67,9.14Z"/>
        <path class="cls-1" d="M65.59,10.4c1.58,0,2.09.65,2.09,1.73s-.5,1.8-2.09,1.8h-8.96c-.43,4.03-.72,7.24-1.12,10.22-.43,3.46-1.66,4.1-6.05,4.1h-5.87c-1.55,0-2.2-.58-2.2-1.69s.65-1.73,2.2-1.73h3.13c.47-3.2.9-7.31,1.22-10.91h-9.47c-1.66,0-2.12-.72-2.12-1.8s.47-1.73,2.12-1.73h27.1ZM41.62,5.04c-1.66,0-2.12-.65-2.12-1.76,0-1.04.47-1.73,2.12-1.73h20.37c1.55,0,2.09.65,2.09,1.73s-.54,1.76-2.09,1.76h-20.37Z"/>
        <path class="cls-1" d="M101.59,10.4c1.58,0,2.09.65,2.09,1.73s-.5,1.8-2.09,1.8h-8.96c-.43,4.03-.72,7.24-1.12,10.22-.43,3.46-1.66,4.1-6.05,4.1h-5.87c-1.55,0-2.2-.58-2.2-1.69s.65-1.73,2.2-1.73h3.13c.47-3.2.9-7.31,1.22-10.91h-9.47c-1.66,0-2.12-.72-2.12-1.8s.47-1.73,2.12-1.73h27.1ZM77.62,5.04c-1.48,0-2.12-.65-2.12-1.76,0-1.04.65-1.73,2.12-1.73h17.31c1.44,0,2.09.65,2.09,1.73s-.65,1.76-2.09,1.76h-17.31ZM97.74,1.55c-.11-.86.54-1.33,1.33-1.44.86-.07,1.55.29,1.66,1.12l.36,3.28c.11.86-.47,1.37-1.51,1.44-.76,0-1.4-.36-1.48-1.12l-.36-3.28ZM105.44,4.39v.14c0,.83-.54,1.19-1.44,1.3-.83,0-1.44-.36-1.51-1.12l-.36-3.28c-.07-.86.5-1.37,1.37-1.44h.18c.72,0,1.33.36,1.4,1.12l.36,3.28Z"/>
        <path class="cls-1" d="M135.64,6.51c0,.68-.4,1.37-1.12,1.98-2.02,1.73-3.31,2.77-5.76,4.61v12.38c0,1.76-1.3,2.56-3.74,2.56-2.7,0-3.92-.86-3.92-2.66v-9.43c-.83.07-1.69.11-2.63.11h-6.16c-1.3,0-1.8-.68-1.8-1.62s.54-1.55,1.84-1.55h4.93c4.64-3.06,9.21-6.73,11.09-8.35.97-.83,2.09-1.19,3.17-1.19.97,0,1.91.32,2.59.83,1.01.72,1.51,1.51,1.51,2.34Z"/>
      </g>
      <g>
        <path class="cls-2" d="M118.43,74.11c.56.63.88,1.38.88,2.12,0,1.02-.56,2.08-1.59,2.93-.81.67-1.9,1.13-2.99,1.13-.99,0-1.94-.35-2.71-1.23l-6.41-7.16c-1.37,2.12-2.64,3.99-3.56,5.18-1.9,2.65-2.96,2.96-7.01,2.96h-5.25c-1.48,0-2.01-.85-2.01-1.76v-.07c.04-.85.67-1.55,1.94-1.55h2.57c5.81-8.15,9.2-13.26,12.37-18.58h-12.12c-1.3,0-2.08-.71-2.04-1.76,0-1.06.77-1.69,2.04-1.69h14.23c.77-.81,1.9-1.16,3.17-1.16.63,0,1.34.11,2.01.28,2.54.63,3.38,2.22,2.22,4.37-.74,1.34-2.36,4.05-4.23,7.05l8.49,8.96Z"/>
        <path class="cls-2" d="M152.53,55.88c0,.32-.04.67-.11,1.02-.49,3.17-2.25,14.11-3.31,19.25-.67,3.24-1.73,3.98-6.59,3.98h-8.03c-1.41-.04-1.94-.85-1.94-1.66s.56-1.69,2.08-1.69h5.88c.56-2.61,1.16-5.54,1.69-8.43h-5.88c-1.48,0-2.08-.71-2.08-1.73s.6-1.69,2.08-1.69h6.48c.49-2.75.92-5.22,1.2-6.98h-9.2l-1.62,8.53c-.39,2.12-1.37,2.71-4.72,2.71h-4.09c-1.55-.07-1.97-.71-1.97-1.55v-.11c.04-.85.42-1.48,1.9-1.48h1.09l1.76-10.33c.32-1.9,1.06-2.93,3.73-2.93.25,0,.46.04.7.04,1.76.14,2.99.6,3.45,1.69h9.65c.63-1.27,1.97-1.69,3.88-1.55,2.82.21,3.95,1.06,3.95,2.89Z"/>
        <path class="cls-2" d="M187.2,62.65c1.55,0,2.04.63,2.04,1.69s-.49,1.76-2.04,1.76h-8.77c-.42,3.95-.71,7.09-1.09,10.01-.42,3.39-1.62,4.02-5.92,4.02h-5.74c-1.52,0-2.15-.56-2.15-1.66s.63-1.69,2.15-1.69h3.07c.46-3.14.88-7.16,1.2-10.68h-9.27c-1.62,0-2.08-.71-2.08-1.76s.46-1.69,2.08-1.69h26.53ZM163.74,57.4c-1.44,0-2.08-.63-2.08-1.73,0-1.02.63-1.69,2.08-1.69h16.95c1.41,0,2.04.63,2.04,1.69s-.63,1.73-2.04,1.73h-16.95ZM183.43,53.98c-.11-.85.53-1.3,1.3-1.41.85-.07,1.51.28,1.62,1.09l.35,3.21c.11.85-.46,1.34-1.48,1.41-.74,0-1.37-.35-1.44-1.09l-.35-3.21ZM190.97,56.76v.14c0,.81-.53,1.16-1.41,1.27-.81,0-1.41-.35-1.48-1.09l-.35-3.21c-.07-.85.49-1.34,1.34-1.41h.18c.71,0,1.3.35,1.37,1.09l.35,3.21Z"/>
        <path class="cls-2" d="M220.53,58.84c0,.67-.39,1.34-1.09,1.94-1.97,1.69-3.24,2.72-5.64,4.51v12.13c0,1.73-1.27,2.5-3.66,2.5-2.64,0-3.84-.85-3.84-2.61v-9.24c-.81.07-1.66.11-2.57.11h-6.02c-1.27,0-1.76-.67-1.76-1.59s.53-1.52,1.8-1.52h4.83c4.55-3,9.02-6.59,10.85-8.18.95-.81,2.04-1.16,3.1-1.16.95,0,1.87.32,2.54.81.99.71,1.48,1.48,1.48,2.29Z"/>
      </g>
      <g>
        <g>
          <path class="cls-5" d="M166.2,10.06l-6.18,15.9s5.24-.07,8.43,1.16c3.19,1.23,7.27,5.08,7.27,5.08l6.46-16.71s-4.55-3.22-8.56-4.76-7.42-.67-7.42-.67Z"/>
          <path class="cls-5" d="M197.67,22.15s-1.94-2.93-5.96-4.47-9.53-2.19-9.53-2.19l-6.41,16.73s5.61-.13,8.8,1.09,7.04,4.78,7.04,4.78l6.06-15.95Z"/>
        </g>
        <g>
          <path class="cls-6" d="M169.95,7.78l-6.38,16.83s2.86.09,6.21,1.99c3.35,1.9,5.97,5.62,5.97,5.62l7.31-19.09s-3.03-3.14-6.05-4.3-7.06-1.04-7.06-1.04Z"/>
          <path class="cls-6" d="M190.52,14c-3.03-1.16-7.46-.88-7.46-.88l-7.28,19.09s4.44-1.01,8.2-.17c3.76.84,5.94,2.68,5.94,2.68l6.53-16.77s-2.92-2.8-5.94-3.96Z"/>
        </g>
        <path class="cls-8" d="M194.23,19.6s-2.15-2.06-4.38-2.92-5.5-.65-5.5-.65"/>
        <path class="cls-8" d="M192.7,23.57s-2.15-2.06-4.38-2.92-5.5-.65-5.5-.65"/>
        <path class="cls-8" d="M191.18,27.53s-2.15-2.06-4.38-2.92-5.5-.65-5.5-.65"/>
        <path class="cls-8" d="M189.65,31.5s-2.15-2.06-4.38-2.92-5.5-.65-5.5-.65"/>
        <path class="cls-8" d="M170.83,10.61s2.98-.09,5.21.77,4.52,3.2,4.52,3.2"/>
        <path class="cls-8" d="M169.3,14.58s2.98-.09,5.21.77,4.52,3.2,4.52,3.2"/>
        <path class="cls-8" d="M167.78,18.54s2.98-.09,5.21.77,4.52,3.2,4.52,3.2"/>
        <path class="cls-8" d="M166.26,22.51s2.98-.09,5.21.77c2.23.86,4.52,3.2,4.52,3.2"/>
        <g>
          <polygon class="cls-6" points="205.58 8.99 190 15.92 184.88 22.35 193.02 23.23 208.72 16.19 206.46 11.01 205.58 8.99"/>
          <polyline class="cls-7" points="190 15.92 191.57 17.51 191.44 19.33 193.04 20.74 193.02 23.23"/>
          <line class="cls-7" x1="191.57" y1="17.51" x2="206.46" y2="11.01"/>
          <line class="cls-7" x1="193.04" y1="20.74" x2="207.9" y2="14.31"/>
          <polygon class="cls-10" points="187.82 18.64 189.64 22.73 185.09 22.32 187.82 18.64"/>
        </g>
      </g>
      <g>
        <circle class="cls-4" cx="37.71" cy="60.8" r="16.55"/>
        <g>
          <polyline class="cls-4" points="28.91 58.19 37.71 60.99 42.03 51.16"/>
          <polygon class="cls-10" points="29.25 59.32 26.09 57.29 29.84 57.47 29.25 59.32"/>
          <polygon class="cls-10" points="42.66 52.16 43.23 48.45 40.87 51.38 42.66 52.16"/>
        </g>
        <g>
          <path class="cls-9" d="M40.79,73.52c.06-.11.16-.2.32-.24.29-.08.59.08.69.47.1.37-.05.77-.45.88-.46.13-.79-.17-.92-.64-.18-.67.08-1.22.64-1.42.07-.03.1-.04.18-.06l.1.34s-.1.03-.16.06c-.32.13-.42.39-.41.62h.01ZM41.35,73.89c-.04-.15-.16-.3-.31-.26-.09.02-.14.11-.16.2,0,.03,0,.08.02.15.06.2.19.37.35.32.15-.04.15-.24.1-.42Z"/>
          <path class="cls-9" d="M33.15,72.93l1.24-.34.08.28-.24,1.86-.46.13.27-1.76h0s-.78.21-.78.21l-.1-.37Z"/>
          <path class="cls-9" d="M27.69,70.36c-.2-.05-.34-.19-.38-.35-.09-.33.13-.61.48-.71.39-.11.65.07.73.33.04.15,0,.34-.15.5h0c.2.04.4.16.47.4.1.36-.12.66-.51.77-.43.12-.72-.07-.8-.36-.07-.23.02-.44.18-.59h0ZM27.73,69.88c.03.12.15.2.3.22.08-.05.12-.19.09-.3-.03-.12-.12-.23-.25-.19-.16.04-.16.18-.13.28ZM28.39,70.69c-.05-.17-.19-.26-.34-.26-.1.08-.14.22-.1.36.04.14.16.26.3.22.15-.04.18-.19.15-.31Z"/>
          <path class="cls-9" d="M24.8,64.41c-.05.09-.15.18-.3.22-.29.08-.6-.07-.7-.45-.1-.36.06-.76.47-.88.44-.12.76.18.89.64.2.73-.07,1.29-.73,1.47-.04.01-.07.02-.1.03l-.1-.35c.06-.01.09-.02.18-.06.23-.09.41-.28.39-.62h0ZM24.24,64.03c.05.2.18.31.31.27.09-.03.14-.11.16-.16,0-.04,0-.1-.03-.18-.06-.2-.17-.36-.32-.32-.13.04-.16.21-.11.4Z"/>
          <g>
            <path class="cls-9" d="M23.83,58.63l-.43-1.54h0s-.29.27-.29.27l-.19-.3.43-.38.38-.11.54,1.94-.44.12Z"/>
            <path class="cls-9" d="M24.51,57.4c-.15-.55-.08-1.06.39-1.19.5-.14.79.33.93.81.18.63.03,1.08-.38,1.19-.5.14-.8-.32-.94-.81ZM25.38,57.15c-.12-.42-.24-.62-.38-.58-.13.04-.16.26-.04.7.12.44.25.62.39.58.11-.03.17-.17.03-.7Z"/>
          </g>
          <g>
            <path class="cls-9" d="M27.22,52.54l-.43-1.54h0s-.29.27-.29.27l-.19-.3.43-.38.38-.11.54,1.94-.44.12Z"/>
            <path class="cls-9" d="M28.7,52.13l-.43-1.54h0s-.29.27-.29.27l-.19-.3.43-.38.38-.11.54,1.94-.44.12Z"/>
          </g>
          <g>
            <path class="cls-9" d="M33.28,49.04l-.43-1.54h0s-.29.27-.29.27l-.19-.3.43-.38.38-.11.54,1.94-.44.12Z"/>
            <path class="cls-9" d="M35.49,48.43l-1.24.34-.08-.28.16-.31c.24-.44.38-.73.31-.96-.04-.15-.17-.25-.35-.2-.13.04-.24.14-.31.23l-.21-.29c.1-.12.29-.26.51-.32.44-.12.71.09.8.42.09.34-.06.67-.23.97l-.12.2h0s.66-.18.66-.18l.1.38Z"/>
          </g>
          <path class="cls-9" d="M40.9,48.81l-.43-1.54h0s-.29.26-.29.26l-.19-.3.43-.38.38-.11.54,1.94-.44.12Z"/>
          <path class="cls-9" d="M47.71,51.98l-1.24.34-.08-.28.16-.31c.24-.44.38-.73.31-.96-.04-.15-.16-.25-.35-.2-.13.04-.24.14-.31.23l-.21-.29c.1-.12.29-.26.51-.32.44-.12.71.09.8.42.09.34-.06.67-.23.97l-.12.2h0s.66-.18.66-.18l.1.38Z"/>
          <path class="cls-9" d="M50.53,57.03c.23,0,.45.12.52.37.09.33-.11.67-.57.79-.21.06-.41.06-.53.02v-.37c.09.03.26.04.39,0,.2-.05.28-.2.24-.35-.05-.19-.25-.23-.44-.18l-.13.04-.09-.31.12-.03c.14-.04.3-.16.26-.32-.03-.12-.14-.18-.3-.13-.13.04-.24.12-.3.18l-.18-.3c.08-.09.27-.21.49-.27.38-.11.65.06.72.32.06.2-.02.39-.2.53h0Z"/>
          <path class="cls-9" d="M51.15,64.95l-.41.11-.13-.45-.76.21-.08-.29.33-1.38.51-.14.32,1.15.21-.06.09.34-.21.06.13.45ZM50.15,64.37l.37-.1-.11-.4c-.03-.11-.06-.24-.08-.36h0c-.02.13-.04.26-.07.4l-.1.46h0Z"/>
          <path class="cls-9" d="M47.2,69.04l.1.37-.64.18.05.32s.06-.02.09-.03c.3-.08.7-.01.82.43.1.37-.09.77-.58.9-.19.05-.39.06-.49.04l-.02-.36c.09.02.24.02.38-.02.18-.05.32-.2.26-.4-.06-.22-.26-.28-.57-.19-.08.02-.14.04-.2.07l-.17-1.04.96-.27Z"/>
        </g>
      </g>
      <path class="cls-3" d="M124,50.69c.66.75.96,1.45.96,2.11,0,1.4-1.49,2.5-3.95,2.94-1.14.22-2.28.44-3.29.44-1.75,0-3.33-.53-4.74-2.19-1.18-1.36-3.95-4.69-7.19-8.64l-8.51,9.43c-.92,1.01-1.89,1.45-3.03,1.45-.48,0-1.05-.09-1.67-.26-1.36-.35-2.15-1.05-2.15-1.93,0-.61.35-1.27,1.1-2.02,1.36-1.4,5.7-6.14,10.35-11.32-3.86-4.65-7.76-9.39-10.22-12.42-2.06-2.54-.18-4.21,3.42-4.78.88-.13,1.75-.26,2.63-.26,1.71,0,3.29.48,4.61,2.06,2.46,2.98,4.56,5.48,6.45,7.72,4.04-4.52,7.28-8.16,7.68-8.64.66-.75,1.67-1.14,2.98-1.14.35,0,.75.04,1.14.09,1.54.22,2.76.83,2.76,1.8,0,.35-.13.79-.53,1.23-1.18,1.36-5.4,6.05-10.09,11.32l11.27,13.03Z"/>
    </g>
  </g>
</svg>