<?xml version="1.0" encoding="UTF-8"?>
<svg id="_レイヤー_2" data-name="レイヤー 2" xmlns="http://www.w3.org/2000/svg" viewBox="0 0 228.74 95.98">
  <defs>
    <style>
      .cls-1 {
        fill: #fff;
      }

      .cls-1, .cls-2, .cls-3, .cls-4, .cls-5 {
        stroke: #040000;
      }

      .cls-1, .cls-3, .cls-4 {
        stroke-width: .29px;
      }

      .cls-1, .cls-4, .cls-5 {
        stroke-linejoin: round;
      }

      .cls-2 {
        stroke-width: 1.12px;
      }

      .cls-2, .cls-6, .cls-3 {
        stroke-miterlimit: 10;
      }

      .cls-2, .cls-4, .cls-5 {
        fill: none;
      }

      .cls-7 {
        fill: #6e8dc8;
        font-size: 36px;
      }

      .cls-7, .cls-6, .cls-8 {
        font-family: PArdeoMin2-H-83pv-RKSJ-H, 'A P-OTF Ardeo Min2';
      }

      .cls-6 {
        fill: #81998b;
        font-size: 43.87px;
        stroke: #fff;
      }

      .cls-9 {
        fill: #231815;
        font-family: KozGoPr6N-Heavy-83pv-RKSJ-H, 'Kozuka Gothic Pr6N';
        font-size: 2.65px;
        font-weight: 800;
      }

      .cls-3 {
        fill: #7b6929;
      }

      .cls-10 {
        fill: #040000;
      }

      .cls-8 {
        fill: #b7b748;
        font-size: 35.27px;
      }

      .cls-5 {
        stroke-width: .22px;
      }
    </style>
  </defs>
  <g id="_レイヤー_1-2" data-name="レイヤー 1">
    <text class="cls-7" transform="translate(0 31.68)"><tspan x="0" y="0">ステディ</tspan></text>
    <text class="cls-8" transform="translate(87.82 83.57)"><tspan x="0" y="0">スタディ</tspan></text>
    <g>
      <g>
        <path class="cls-3" d="M168.18,13.45l-6.18,15.9s5.24-.07,8.43,1.16c3.19,1.23,7.27,5.08,7.27,5.08l6.46-16.71s-4.55-3.22-8.56-4.76-7.42-.67-7.42-.67Z"/>
        <path class="cls-3" d="M199.65,25.54s-1.94-2.93-5.96-4.47-9.53-2.19-9.53-2.19l-6.41,16.73s5.61-.13,8.8,1.09,7.04,4.78,7.04,4.78l6.06-15.95Z"/>
      </g>
      <g>
        <path class="cls-1" d="M171.93,11.17l-6.38,16.83s2.86.09,6.21,1.99c3.35,1.9,5.97,5.62,5.97,5.62l7.31-19.09s-3.03-3.14-6.05-4.3-7.06-1.04-7.06-1.04Z"/>
        <path class="cls-1" d="M192.5,17.39c-3.03-1.16-7.46-.88-7.46-.88l-7.28,19.09s4.44-1.01,8.2-.17c3.76.84,5.94,2.68,5.94,2.68l6.53-16.77s-2.92-2.8-5.94-3.96Z"/>
      </g>
      <path class="cls-5" d="M196.21,22.99s-2.15-2.06-4.38-2.92-5.5-.65-5.5-.65"/>
      <path class="cls-5" d="M194.68,26.95s-2.15-2.06-4.38-2.92-5.5-.65-5.5-.65"/>
      <path class="cls-5" d="M193.16,30.92s-2.15-2.06-4.38-2.92-5.5-.65-5.5-.65"/>
      <path class="cls-5" d="M191.63,34.89s-2.15-2.06-4.38-2.92-5.5-.65-5.5-.65"/>
      <path class="cls-5" d="M172.81,14s2.98-.09,5.21.77,4.52,3.2,4.52,3.2"/>
      <path class="cls-5" d="M171.28,17.96s2.98-.09,5.21.77,4.52,3.2,4.52,3.2"/>
      <path class="cls-5" d="M169.76,21.93s2.98-.09,5.21.77,4.52,3.2,4.52,3.2"/>
      <path class="cls-5" d="M168.24,25.9s2.98-.09,5.21.77c2.23.86,4.52,3.2,4.52,3.2"/>
      <g>
        <polygon class="cls-1" points="207.56 12.37 191.97 19.3 186.86 25.74 195 26.62 210.7 19.58 208.44 14.4 207.56 12.37"/>
        <polyline class="cls-4" points="191.97 19.3 193.55 20.89 193.42 22.72 195.02 24.13 195 26.62"/>
        <line class="cls-4" x1="193.55" y1="20.89" x2="208.44" y2="14.4"/>
        <line class="cls-4" x1="195.02" y1="24.13" x2="209.88" y2="17.7"/>
        <polygon class="cls-10" points="189.8 22.03 191.62 26.12 187.07 25.7 189.8 22.03"/>
      </g>
    </g>
    <g>
      <circle class="cls-2" cx="39.69" cy="64.19" r="16.55"/>
      <g>
        <polyline class="cls-2" points="30.89 61.58 39.69 64.38 44.01 54.55"/>
        <polygon class="cls-10" points="31.23 62.71 28.07 60.68 31.82 60.85 31.23 62.71"/>
        <polygon class="cls-10" points="44.64 55.55 45.21 51.83 42.85 54.77 44.64 55.55"/>
      </g>
      <g>
        <text class="cls-9" transform="translate(42.55 78.2) rotate(-15.5)"><tspan x="0" y="0">6</tspan></text>
        <text class="cls-9" transform="translate(35.55 78.3) rotate(-15.53)"><tspan x="0" y="0">7</tspan></text>
        <text class="cls-9" transform="translate(29.56 74.87) rotate(-15.58)"><tspan x="0" y="0">8</tspan></text>
        <text class="cls-9" transform="translate(26.07 68.88) rotate(-15.5)"><tspan x="0" y="0">9</tspan></text>
        <text class="cls-9" transform="translate(25.19 62.19) rotate(-15.53)"><tspan x="0" y="0">10</tspan></text>
        <text class="cls-9" transform="translate(28.58 56.1) rotate(-15.51)"><tspan x="0" y="0">11</tspan></text>
        <text class="cls-9" transform="translate(34.64 52.6) rotate(-15.5)"><tspan x="0" y="0">12</tspan></text>
        <text class="cls-9" transform="translate(42.26 52.37) rotate(-15.5)"><tspan x="0" y="0">1</tspan></text>
        <text class="cls-9" transform="translate(48.35 55.74) rotate(-15.54)"><tspan x="0" y="0">2</tspan></text>
        <text class="cls-9" transform="translate(51.87 61.72) rotate(-15.5)"><tspan x="0" y="0">3</tspan></text>
        <text class="cls-9" transform="translate(51.91 68.67) rotate(-15.57)"><tspan x="0" y="0">4</tspan></text>
        <text class="cls-9" transform="translate(48.44 74.73) rotate(-15.51)"><tspan x="0" y="0">5</tspan></text>
      </g>
    </g>
    <text class="cls-6" transform="translate(90.22 59.79)"><tspan x="0" y="0">X</tspan></text>
  </g>
</svg>